<?xml version="1.0" encoding="UTF-8" standalone="no"?>
<!DOCTYPE svg PUBLIC "-//W3C//DTD SVG 1.1//EN" "http://www.w3.org/Graphics/SVG/1.1/DTD/svg11.dtd">
<svg width="100%" height="100%" viewBox="0 0 1024 1024" version="1.1" xmlns="http://www.w3.org/2000/svg" xmlns:xlink="http://www.w3.org/1999/xlink" xml:space="preserve" xmlns:serif="http://www.serif.com/" style="fill-rule:evenodd;clip-rule:evenodd;stroke-linejoin:round;stroke-miterlimit:2;">
    <rect id="Artboard1" x="0" y="0" width="1024" height="1024" style="fill:none;"/>
    <clipPath id="_clip1">
        <rect id="Artboard11" serif:id="Artboard1" x="0" y="0" width="1024" height="1024"/>
    </clipPath>
    <g clip-path="url(#_clip1)">
        <g transform="matrix(2.05338,0,0,2.22925,-66.7617,-72.2577)">
            <rect x="32.513" y="32.413" width="498.69" height="459.347" style="fill:url(#_Radial2);"/>
        </g>
        <path d="M325.063,891.73C249.388,891.73 212,853.892 212,776.865L212,247.136C212,170.559 249.388,132.27 325.063,132.27L484.072,132.27L484.072,393.982C484.072,441.73 506.594,464.252 554.342,464.252L812,464.252L812,776.865C812,853.441 774.162,891.73 698.486,891.73L325.063,891.73ZM443.543,727.571L443.543,714.339L384.119,714.339L384.119,727.571L405.066,727.571L405.066,785.432L422.205,785.432L422.205,727.571L443.543,727.571ZM478.797,747.493L479.09,732.21C477.788,731.819 476.258,731.624 474.5,731.624C469.552,731.624 465.695,734.212 462.928,739.387L462.391,732.6L446.961,732.6L446.961,785.432L463.416,785.432L463.416,751.985C464.881,748.73 468.201,747.102 473.377,747.102L478.797,747.493ZM562.098,601.36L552.186,556.78L537.635,556.78L527.869,601.36L519.715,556.78L502.674,556.78L517.811,627.874L535.535,627.874L544.861,587.347L554.383,627.874L572.156,627.874L587.244,556.78L570.252,556.78L562.098,601.36ZM513.025,785.432L529.48,785.432L529.48,784.602C528.048,782.031 527.299,778.32 527.234,773.469L527.234,750.081C527.137,744.352 525.135,739.843 521.229,736.555C517.322,733.268 512,731.624 505.262,731.624C498.523,731.624 492.981,733.219 488.636,736.409C484.29,739.599 482.117,743.749 482.117,748.86L498.572,748.86C498.572,745.019 500.525,743.098 504.432,743.098C508.631,743.098 510.73,745.523 510.73,750.374L510.73,753.157L505.652,753.157C497.579,753.157 491.427,754.622 487.195,757.551C482.964,760.481 480.848,764.811 480.848,770.54C480.848,775.097 482.589,778.881 486.072,781.892C489.555,784.903 493.787,786.409 498.768,786.409C504.204,786.409 508.436,784.505 511.463,780.696C511.919,782.779 512.439,784.358 513.025,785.432ZM502.723,774.69C501.16,774.69 499.874,774.226 498.865,773.299C497.856,772.371 497.352,771.158 497.352,769.661C497.352,764.518 500.216,761.946 505.945,761.946L510.73,761.946L510.73,770.393C510.145,771.5 509.176,772.493 507.825,773.372C506.474,774.251 504.773,774.69 502.723,774.69ZM558.68,773.714C555.913,773.714 553.895,772.688 552.625,770.637C551.355,768.587 550.721,764.908 550.721,759.602C550.721,756.575 550.835,754.199 551.062,752.473C551.779,747.037 554.269,744.319 558.533,744.319C560.779,744.319 562.57,745.051 563.904,746.516C565.239,747.981 565.906,750.081 565.906,752.815L581.336,752.815C581.336,746.305 579.318,741.145 575.281,737.337C571.245,733.528 565.792,731.624 558.924,731.624C553.846,731.624 549.451,732.722 545.74,734.92C542.029,737.117 539.189,740.258 537.22,744.343C535.25,748.429 534.266,753.141 534.266,758.479L534.266,759.163C534.266,767.691 536.479,774.365 540.906,779.182C545.333,784 551.388,786.409 559.07,786.409C565.613,786.409 570.96,784.553 575.11,780.842C579.261,777.132 581.336,772.379 581.336,766.585L565.906,766.585C565.939,768.831 565.32,770.58 564.051,771.834C562.781,773.087 560.991,773.714 558.68,773.714ZM609.51,765.755L621.033,785.432L639.881,785.432L620.154,754.329L638.66,732.6L618.934,732.6L606.531,748.03L604.871,750.227L604.871,710.383L588.416,710.383L588.416,785.432L604.871,785.432L604.871,770.393L609.51,765.755ZM496.18,627.874L496.18,556.78L479.139,556.78L479.139,585.003L453.895,585.003L453.895,556.78L436.756,556.78L436.756,627.874L453.895,627.874L453.895,598.186L479.139,598.186L479.139,627.874L496.18,627.874ZM554.342,411.549C543.081,411.549 536.775,405.694 536.775,393.982L536.775,135.424C553.441,138.127 570.108,149.838 588.576,168.757L775.513,359.748C794.432,379.117 805.694,394.883 807.946,411.549L554.342,411.549Z" style="fill:white;"/>
    </g>
    <defs>
        <radialGradient id="_Radial2" cx="0" cy="0" r="1" gradientUnits="userSpaceOnUse" gradientTransform="matrix(498.69,-459.347,498.69,459.347,32.5131,491.761)"><stop offset="0" style="stop-color:rgb(168,214,212);stop-opacity:1"/><stop offset="0.5" style="stop-color:rgb(82,172,170);stop-opacity:1"/><stop offset="1" style="stop-color:rgb(82,172,170);stop-opacity:1"/></radialGradient>
    </defs>
</svg>
